<svg width="14" height="14" viewBox="0 0 14 14" fill="none" xmlns="http://www.w3.org/2000/svg">
<path d="M10.1792 13.2708C9.52008 13.2708 8.82591 13.1133 8.10841 12.81C7.40841 12.5125 6.70258 12.1041 6.01425 11.6083C5.33175 11.1066 4.67258 10.5466 4.04841 9.93413C3.43008 9.30996 2.87008 8.65079 2.37425 7.97413C1.87258 7.27413 1.47008 6.57413 1.18425 5.89746C0.880915 5.17413 0.729248 4.47413 0.729248 3.81496C0.729248 3.35996 0.810915 2.92829 0.968415 2.52579C1.13175 2.11163 1.39425 1.72663 1.75008 1.39413C2.19925 0.950793 2.71258 0.729126 3.26091 0.729126C3.48841 0.729126 3.72175 0.781626 3.92008 0.874959C4.14758 0.979959 4.34008 1.13746 4.48008 1.34746L5.83341 3.25496C5.95591 3.42413 6.04925 3.58746 6.11341 3.75079C6.18925 3.92579 6.23008 4.10079 6.23008 4.26996C6.23008 4.49163 6.16591 4.70746 6.04341 4.91163C5.95591 5.06913 5.82175 5.23829 5.65258 5.40746L5.25591 5.82163C5.26175 5.83913 5.26758 5.85079 5.27341 5.86246C5.34341 5.98496 5.48341 6.19496 5.75175 6.50996C6.03758 6.83663 6.30591 7.13413 6.57425 7.40829C6.91841 7.74663 7.20425 8.01496 7.47258 8.23663C7.80508 8.51663 8.02091 8.65663 8.14925 8.72079L8.13758 8.74996L8.56341 8.32996C8.74425 8.14913 8.91925 8.01496 9.08841 7.92746C9.40925 7.72913 9.81758 7.69413 10.2259 7.86329C10.3776 7.92746 10.5409 8.01496 10.7159 8.13746L12.6526 9.51413C12.8684 9.65996 13.0259 9.84663 13.1192 10.0683C13.2067 10.29 13.2476 10.4941 13.2476 10.6983C13.2476 10.9783 13.1834 11.2583 13.0609 11.5208C12.9384 11.7833 12.7867 12.0108 12.5942 12.2208C12.2617 12.5883 11.9001 12.8508 11.4801 13.02C11.0776 13.1833 10.6401 13.2708 10.1792 13.2708ZM3.26091 1.60413C2.94008 1.60413 2.64258 1.74413 2.35675 2.02413C2.08841 2.27496 1.90175 2.54913 1.78508 2.84663C1.66258 3.14996 1.60425 3.47079 1.60425 3.81496C1.60425 4.35746 1.73258 4.94663 1.98925 5.55329C2.25175 6.17163 2.61925 6.81329 3.08591 7.45496C3.55258 8.09663 4.08341 8.72079 4.66675 9.30996C5.25008 9.88746 5.88008 10.4241 6.52758 10.8966C7.15758 11.3575 7.80508 11.7308 8.44675 11.9991C9.44425 12.425 10.3776 12.5241 11.1476 12.2033C11.4451 12.0808 11.7076 11.8941 11.9467 11.6258C12.0809 11.48 12.1859 11.3225 12.2734 11.1358C12.3434 10.99 12.3784 10.8383 12.3784 10.6866C12.3784 10.5933 12.3609 10.5 12.3142 10.395C12.2967 10.36 12.2617 10.2958 12.1509 10.22L10.2142 8.84329C10.0976 8.76163 9.99258 8.70329 9.89341 8.66246C9.76508 8.60996 9.71258 8.55746 9.51425 8.67996C9.39758 8.73829 9.29258 8.82579 9.17591 8.94246L8.73258 9.37996C8.50508 9.60163 8.15508 9.65413 7.88675 9.55496L7.72925 9.48496C7.49008 9.35663 7.21008 9.15829 6.90091 8.89579C6.62091 8.65663 6.31758 8.37663 5.95008 8.01496C5.66425 7.72329 5.37841 7.41413 5.08091 7.06996C4.80675 6.74913 4.60841 6.47496 4.48591 6.24746L4.41591 6.07246C4.38091 5.93829 4.36925 5.86246 4.36925 5.78079C4.36925 5.57079 4.44508 5.38413 4.59091 5.23829L5.02841 4.78329C5.14508 4.66663 5.23258 4.55579 5.29091 4.45663C5.33758 4.38079 5.35508 4.31663 5.35508 4.25829C5.35508 4.21163 5.33758 4.14163 5.30841 4.07163C5.26758 3.97829 5.20341 3.87329 5.12175 3.76246L3.76841 1.84913C3.71008 1.76746 3.64008 1.70913 3.55258 1.66829C3.45925 1.62746 3.36008 1.60413 3.26091 1.60413ZM8.13758 8.75579L8.04425 9.15246L8.20175 8.74413C8.17258 8.73829 8.14925 8.74413 8.13758 8.75579Z" fill="#292D32"/>
<path d="M10.7917 5.68754C10.5525 5.68754 10.3542 5.48921 10.3542 5.25004C10.3542 5.04004 10.1442 4.60254 9.79417 4.22921C9.45 3.86171 9.07083 3.64587 8.75 3.64587C8.51083 3.64587 8.3125 3.44754 8.3125 3.20837C8.3125 2.96921 8.51083 2.77087 8.75 2.77087C9.31583 2.77087 9.91083 3.07421 10.43 3.62837C10.9142 4.14754 11.2292 4.78337 11.2292 5.25004C11.2292 5.48921 11.0308 5.68754 10.7917 5.68754Z" fill="#292D32"/>
<path d="M12.8333 5.68746C12.5942 5.68746 12.3958 5.48913 12.3958 5.24996C12.3958 3.23746 10.7625 1.60413 8.75 1.60413C8.51083 1.60413 8.3125 1.40579 8.3125 1.16663C8.3125 0.927459 8.51083 0.729126 8.75 0.729126C11.2408 0.729126 13.2708 2.75913 13.2708 5.24996C13.2708 5.48913 13.0725 5.68746 12.8333 5.68746Z" fill="#292D32"/>
</svg>
