<svg width="16" height="16" viewBox="0 0 16 16" fill="none" xmlns="http://www.w3.org/2000/svg">
<path d="M8 13.5C4.96667 13.5 2.5 11.0333 2.5 8C2.5 4.96667 4.96667 2.5 8 2.5C11.0333 2.5 13.5 4.96667 13.5 8C13.5 11.0333 11.0333 13.5 8 13.5ZM8 3.5C5.52 3.5 3.5 5.52 3.5 8C3.5 10.48 5.52 12.5 8 12.5C10.48 12.5 12.5 10.48 12.5 8C12.5 5.52 10.48 3.5 8 3.5Z" fill="#292D32"/>
<path d="M8 10.5C6.62 10.5 5.5 9.38 5.5 8C5.5 6.62 6.62 5.5 8 5.5C9.38 5.5 10.5 6.62 10.5 8C10.5 9.38 9.38 10.5 8 10.5ZM8 6.5C7.17333 6.5 6.5 7.17333 6.5 8C6.5 8.82667 7.17333 9.5 8 9.5C8.82667 9.5 9.5 8.82667 9.5 8C9.5 7.17333 8.82667 6.5 8 6.5Z" fill="#292D32"/>
<path d="M8 3.16671C7.72667 3.16671 7.5 2.94004 7.5 2.66671V1.33337C7.5 1.06004 7.72667 0.833374 8 0.833374C8.27333 0.833374 8.5 1.06004 8.5 1.33337V2.66671C8.5 2.94004 8.27333 3.16671 8 3.16671Z" fill="#292D32"/>
<path d="M2.66659 8.5H1.33325C1.05992 8.5 0.833252 8.27333 0.833252 8C0.833252 7.72667 1.05992 7.5 1.33325 7.5H2.66659C2.93992 7.5 3.16659 7.72667 3.16659 8C3.16659 8.27333 2.93992 8.5 2.66659 8.5Z" fill="#292D32"/>
<path d="M8 15.1667C7.72667 15.1667 7.5 14.94 7.5 14.6667V13.3334C7.5 13.06 7.72667 12.8334 8 12.8334C8.27333 12.8334 8.5 13.06 8.5 13.3334V14.6667C8.5 14.94 8.27333 15.1667 8 15.1667Z" fill="#292D32"/>
<path d="M14.6666 8.5H13.3333C13.0599 8.5 12.8333 8.27333 12.8333 8C12.8333 7.72667 13.0599 7.5 13.3333 7.5H14.6666C14.9399 7.5 15.1666 7.72667 15.1666 8C15.1666 8.27333 14.9399 8.5 14.6666 8.5Z" fill="#292D32"/>
</svg>
