<svg width="21" height="18" viewBox="0 0 21 18" fill="none" xmlns="http://www.w3.org/2000/svg">
<path fill-rule="evenodd" clip-rule="evenodd" d="M9.66 17.8788C9.90419 17.9627 10.1972 18 10.5 18C10.8028 18 11.0958 17.9627 11.34 17.8788C15.0712 16.657 21 12.3295 21 5.91295C21 3.02346 18.8216 0.604361 15.9546 0.0975941C15.6445 0.0334773 15.3256 4.57764e-05 15 4.57764e-05C14.9743 4.57764e-05 14.9484 0.000218839 14.9225 0.000564217C14.8939 0.000188483 14.8654 0 14.8367 0C13.9462 0 13.0869 0.179169 12.3049 0.517001C11.6099 0.769689 10.923 1.1102 10.2952 1.52779C9.63709 0.950145 8.86143 0.523514 8.018 0.270065C7.53584 0.094223 7.02656 4.57764e-05 6.5 4.57764e-05C6.44966 4.57764e-05 6.39948 0.00090655 6.34946 0.00261716C6.28756 0.000874719 6.22548 0 6.16326 0C2.76419 0 0 2.6487 0 5.91295C0 12.3202 5.92884 16.657 9.66 17.8788Z" fill="white"/>
</svg>
