<svg width="20" height="20" viewBox="0 0 20 20" fill="none" xmlns="http://www.w3.org/2000/svg">
<path d="M9.99996 18.0416C9.74163 18.0416 9.49163 18.0083 9.28329 17.9333C6.09996 16.8416 1.04163 12.9666 1.04163 7.24158C1.04163 4.32492 3.39996 1.95825 6.29996 1.95825C7.70829 1.95825 9.02496 2.50825 9.99996 3.49159C10.975 2.50825 12.2916 1.95825 13.7 1.95825C16.6 1.95825 18.9583 4.33325 18.9583 7.24158C18.9583 12.9749 13.9 16.8416 10.7166 17.9333C10.5083 18.0083 10.2583 18.0416 9.99996 18.0416ZM6.29996 3.20825C4.09163 3.20825 2.29163 5.01658 2.29163 7.24158C2.29163 12.9333 7.76663 16.0999 9.69163 16.7583C9.84163 16.8083 10.1666 16.8083 10.3166 16.7583C12.2333 16.0999 17.7166 12.9416 17.7166 7.24158C17.7166 5.01658 15.9166 3.20825 13.7083 3.20825C12.4416 3.20825 11.2666 3.79992 10.5083 4.82492C10.275 5.14159 9.74163 5.14159 9.50829 4.82492C8.73329 3.79159 7.56663 3.20825 6.29996 3.20825Z" fill="#999999"/>
</svg>
