<svg width="20" height="20" viewBox="0 0 20 20" fill="none" xmlns="http://www.w3.org/2000/svg">
<path d="M9.99996 18.9583C5.05829 18.9583 1.04163 14.9416 1.04163 9.99996C1.04163 5.05829 5.05829 1.04163 9.99996 1.04163C14.9416 1.04163 18.9583 5.05829 18.9583 9.99996C18.9583 14.9416 14.9416 18.9583 9.99996 18.9583ZM9.99996 2.29163C5.74996 2.29163 2.29163 5.74996 2.29163 9.99996C2.29163 14.25 5.74996 17.7083 9.99996 17.7083C14.25 17.7083 17.7083 14.25 17.7083 9.99996C17.7083 5.74996 14.25 2.29163 9.99996 2.29163Z" fill="#292D32"/>
<path d="M10 11.4583C9.65833 11.4583 9.375 11.175 9.375 10.8333V6.66663C9.375 6.32496 9.65833 6.04163 10 6.04163C10.3417 6.04163 10.625 6.32496 10.625 6.66663V10.8333C10.625 11.175 10.3417 11.4583 10 11.4583Z" fill="#292D32"/>
<path d="M9.99996 14.1667C9.89163 14.1667 9.78329 14.1417 9.68329 14.1C9.58329 14.0583 9.49163 14 9.40829 13.925C9.33329 13.8416 9.27496 13.7583 9.23329 13.65C9.19163 13.55 9.16663 13.4417 9.16663 13.3333C9.16663 13.225 9.19163 13.1167 9.23329 13.0167C9.27496 12.9167 9.33329 12.825 9.40829 12.7417C9.49163 12.6667 9.58329 12.6083 9.68329 12.5667C9.88329 12.4833 10.1166 12.4833 10.3166 12.5667C10.4166 12.6083 10.5083 12.6667 10.5916 12.7417C10.6666 12.825 10.725 12.9167 10.7666 13.0167C10.8083 13.1167 10.8333 13.225 10.8333 13.3333C10.8333 13.4417 10.8083 13.55 10.7666 13.65C10.725 13.7583 10.6666 13.8416 10.5916 13.925C10.5083 14 10.4166 14.0583 10.3166 14.1C10.2166 14.1417 10.1083 14.1667 9.99996 14.1667Z" fill="#292D32"/>
</svg>
