<svg width="12" height="12" viewBox="0 0 12 12" fill="none" xmlns="http://www.w3.org/2000/svg">
<path d="M5.99994 7.08497C4.93494 7.08497 4.06494 6.21997 4.06494 5.14997C4.06494 4.07997 4.93494 3.21997 5.99994 3.21997C7.06494 3.21997 7.93494 4.08497 7.93494 5.15497C7.93494 6.22497 7.06494 7.08497 5.99994 7.08497ZM5.99994 3.96997C5.34994 3.96997 4.81494 4.49997 4.81494 5.15497C4.81494 5.80997 5.34494 6.33997 5.99994 6.33997C6.65494 6.33997 7.18494 5.80997 7.18494 5.15497C7.18494 4.49997 6.64994 3.96997 5.99994 3.96997Z" fill="#292D32"/>
<path d="M5.99997 11.38C5.25997 11.38 4.51497 11.1 3.93497 10.545C2.45997 9.125 0.829966 6.86 1.44497 4.165C1.99997 1.72 4.13497 0.625 5.99997 0.625C5.99997 0.625 5.99997 0.625 6.00497 0.625C7.86997 0.625 10.005 1.72 10.56 4.17C11.17 6.865 9.53997 9.125 8.06497 10.545C7.48497 11.1 6.73997 11.38 5.99997 11.38ZM5.99997 1.375C4.54497 1.375 2.67497 2.15 2.17997 4.33C1.63997 6.685 3.11997 8.715 4.45997 10C5.32497 10.835 6.67997 10.835 7.54497 10C8.87997 8.715 10.36 6.685 9.82997 4.33C9.32997 2.15 7.45497 1.375 5.99997 1.375Z" fill="#292D32"/>
</svg>
