<svg width="3" height="13" viewBox="0 0 3 13" fill="none" xmlns="http://www.w3.org/2000/svg">
<path d="M2.62 6.31C2.62 5.59 2.02999 5 1.30999 5C0.589995 5 -5.74784e-06 5.59 -5.77931e-06 6.31C-5.81078e-06 7.03 0.589995 7.62 1.30999 7.62C2.02999 7.62 2.62 7.03 2.62 6.31Z" fill="#CCCCCC"/>
<path d="M2.62 1.31C2.62 0.59 2.02999 -2.57897e-08 1.30999 -5.72619e-08C0.589995 -8.87341e-08 -5.74784e-06 0.59 -5.77931e-06 1.31C-5.81078e-06 2.03 0.589995 2.62 1.30999 2.62C2.02999 2.62 2.62 2.03 2.62 1.31Z" fill="#CCCCCC"/>
<path d="M2.62 11.31C2.62 10.59 2.02999 10 1.30999 10C0.589995 10 -5.74784e-06 10.59 -5.77931e-06 11.31C-5.81078e-06 12.03 0.589995 12.62 1.30999 12.62C2.02999 12.62 2.62 12.03 2.62 11.31Z" fill="#CCCCCC"/>
</svg>
