<svg width="19" height="19" viewBox="0 0 19 19" fill="none" xmlns="http://www.w3.org/2000/svg">
<path fill-rule="evenodd" clip-rule="evenodd" d="M1.57384 2.49034C2.72081 1.34337 4.42603 0.916504 6.58333 0.916504H11.5833C13.7406 0.916504 15.4459 1.34337 16.5928 2.49034C17.7398 3.63731 18.1667 5.34253 18.1667 7.49984V12.4998C18.1667 14.1355 17.9227 15.5052 17.3084 16.5728C16.6764 17.6713 15.6978 18.372 14.4043 18.7381C14.2566 18.78 14.1013 18.775 13.959 18.7267C13.2767 18.8842 12.4927 18.9582 11.5835 18.9582H6.58347C5.67414 18.9582 4.89011 18.8842 4.20781 18.7267C4.06542 18.775 3.91014 18.78 3.76238 18.7381C2.46886 18.372 1.4903 17.6713 0.858259 16.5728C0.243978 15.5052 0 14.1355 0 12.4998V7.49984C0 5.34253 0.426868 3.63731 1.57384 2.49034ZM9.08333 14.8915C6.88444 14.8915 5.22741 16.1221 4.80831 17.5732C5.32764 17.6654 5.91277 17.7082 6.58347 17.7082H11.5835C12.2541 17.7082 12.8391 17.6654 13.3584 17.5732C12.9393 16.1222 11.2823 14.8915 9.08333 14.8915ZM2.6345 3.551C1.90647 4.27903 1.5 5.49048 1.5 7.49984V12.4998C1.5 14.0142 1.73102 15.082 2.15841 15.8248C2.44962 16.3309 2.85208 16.7211 3.41009 17.0035C4.10797 14.8429 6.48287 13.3915 9.08333 13.3915C11.6838 13.3915 14.0587 14.8429 14.7566 17.0035C15.3146 16.7211 15.7171 16.3309 16.0083 15.8248C16.4356 15.082 16.6667 14.0142 16.6667 12.4998V7.49984C16.6667 5.49048 16.2602 4.27903 15.5322 3.551C14.8041 2.82297 13.5927 2.4165 11.5833 2.4165H6.58333C4.57397 2.4165 3.36253 2.82297 2.6345 3.551ZM9.08333 6.58317C7.84755 6.58317 6.85 7.58073 6.85 8.81652C6.85 10.055 7.85026 11.0582 9.08333 11.0582C10.3164 11.0582 11.3167 10.055 11.3167 8.81652C11.3167 7.58073 10.3191 6.58317 9.08333 6.58317ZM5.35 8.81652C5.35 6.75231 7.01912 5.08317 9.08333 5.08317C11.1476 5.08317 12.8167 6.75231 12.8167 8.81652C12.8167 10.878 11.1503 12.5582 9.08333 12.5582C7.01641 12.5582 5.35 10.878 5.35 8.81652Z" fill="#999999"/>
</svg>
