<svg width="20" height="20" viewBox="0 0 20 20" fill="none" xmlns="http://www.w3.org/2000/svg">
<path d="M10.0001 18.0416C9.74175 18.0416 9.49175 18.0083 9.28342 17.9333C6.10008 16.8416 1.04175 12.9666 1.04175 7.24165C1.04175 4.32498 3.40008 1.95831 6.30008 1.95831C7.70842 1.95831 9.02508 2.50831 10.0001 3.49165C10.9751 2.50831 12.2917 1.95831 13.7001 1.95831C16.6001 1.95831 18.9584 4.33331 18.9584 7.24165C18.9584 12.975 13.9001 16.8416 10.7167 17.9333C10.5084 18.0083 10.2584 18.0416 10.0001 18.0416ZM6.30008 3.20831C4.09175 3.20831 2.29175 5.01665 2.29175 7.24165C2.29175 12.9333 7.76675 16.1 9.69175 16.7583C9.84175 16.8083 10.1667 16.8083 10.3167 16.7583C12.2334 16.1 17.7167 12.9416 17.7167 7.24165C17.7167 5.01665 15.9167 3.20831 13.7084 3.20831C12.4417 3.20831 11.2667 3.79998 10.5084 4.82498C10.2751 5.14165 9.74175 5.14165 9.50842 4.82498C8.73342 3.79165 7.56675 3.20831 6.30008 3.20831Z" fill="#999999"/>
</svg>
