<svg width="19" height="19" viewBox="0 0 19 19" fill="none" xmlns="http://www.w3.org/2000/svg">
<path fill-rule="evenodd" clip-rule="evenodd" d="M1.57384 2.49046C2.72081 1.34349 4.42603 0.916626 6.58333 0.916626H11.5833C13.7406 0.916626 15.4459 1.34349 16.5928 2.49046C17.7398 3.63743 18.1667 5.34265 18.1667 7.49996V12.5C18.1667 14.1356 17.9227 15.5053 17.3084 16.573C16.6764 17.6714 15.6978 18.3721 14.4043 18.7383C14.2566 18.7801 14.1013 18.7751 13.959 18.7268C13.2767 18.8843 12.4927 18.9583 11.5835 18.9583H6.58347C5.67414 18.9583 4.89011 18.8843 4.20781 18.7268C4.06542 18.7751 3.91014 18.7801 3.76238 18.7383C2.46886 18.3721 1.4903 17.6714 0.858259 16.573C0.243978 15.5053 0 14.1356 0 12.5V7.49996C0 5.34265 0.426868 3.63743 1.57384 2.49046ZM9.08333 14.8916C6.88444 14.8916 5.22741 16.1223 4.80831 17.5733C5.32764 17.6655 5.91277 17.7083 6.58347 17.7083H11.5835C12.2541 17.7083 12.8391 17.6655 13.3584 17.5734C12.9393 16.1223 11.2823 14.8916 9.08333 14.8916ZM2.6345 3.55112C1.90647 4.27915 1.5 5.4906 1.5 7.49996V12.5C1.5 14.0143 1.73102 15.0821 2.15841 15.8249C2.44962 16.331 2.85208 16.7213 3.41009 17.0036C4.10797 14.843 6.48287 13.3916 9.08333 13.3916C11.6838 13.3916 14.0587 14.843 14.7566 17.0036C15.3146 16.7213 15.7171 16.331 16.0083 15.8249C16.4356 15.0821 16.6667 14.0143 16.6667 12.5V7.49996C16.6667 5.4906 16.2602 4.27915 15.5322 3.55112C14.8041 2.82309 13.5927 2.41663 11.5833 2.41663H6.58333C4.57397 2.41663 3.36253 2.82309 2.6345 3.55112ZM9.08333 6.58329C7.84755 6.58329 6.85 7.58085 6.85 8.81664C6.85 10.0551 7.85026 11.0583 9.08333 11.0583C10.3164 11.0583 11.3167 10.0551 11.3167 8.81664C11.3167 7.58085 10.3191 6.58329 9.08333 6.58329ZM5.35 8.81664C5.35 6.75243 7.01912 5.08329 9.08333 5.08329C11.1476 5.08329 12.8167 6.75243 12.8167 8.81664C12.8167 10.8781 11.1503 12.5583 9.08333 12.5583C7.01641 12.5583 5.35 10.8781 5.35 8.81664Z" fill="#999999"/>
</svg>
